<?xml version="1.0" encoding="utf-8"?>
<!-- Generator: Adobe Illustrator 19.2.1, SVG Export Plug-In . SVG Version: 6.00 Build 0)  -->
<svg version="1.1" id="Layer_1" xmlns="http://www.w3.org/2000/svg" xmlns:xlink="http://www.w3.org/1999/xlink" x="0px" y="0px"
	 width="500px" height="500px" viewBox="0 0 500 500" enable-background="new 0 0 500 500" xml:space="preserve">
<g>
	<path d="M466.8,360.6c-67.7-62-26.3-155.2-65-235.5c-14.7-30.5-83.1-86.3-131.5-100.5c0.2-1.1,0.3-2.2,0.3-3.3
		c0-10.8-9.2-19.5-20.7-19.5s-20.7,8.7-20.7,19.5c0,1.1,0.1,2.2,0.3,3.3C181.2,38.7,112.7,94.6,98,125.1
		c-38.6,80.4,2.7,173.6-65,235.5c-18.3,16.8-34.5,22-33.1,31.9c3.9,27.1,132.3,33.5,250,34.2c117.7-0.7,246.1-7.1,249.9-34.2
		C501.3,382.6,485.1,377.4,466.8,360.6z"/>
	<path d="M250,437.1c-21.5-0.1-43.4-0.4-64.9-1.1c4.5,31.8,31.8,56.2,64.8,56.2c33,0,60.3-24.4,64.8-56.2
		C293.3,436.6,271.5,437,250,437.1z"/>
</g>
</svg>
