<?xml version="1.0" encoding="utf-8"?>
<!-- Generator: Adobe Illustrator 19.2.1, SVG Export Plug-In . SVG Version: 6.00 Build 0)  -->
<svg version="1.1" id="Layer_1" xmlns="http://www.w3.org/2000/svg" xmlns:xlink="http://www.w3.org/1999/xlink" x="0px" y="0px"
	 width="500px" height="500px" viewBox="0 0 500 500" enable-background="new 0 0 500 500" xml:space="preserve">
<g>
	<path d="M185.1,436c4.5,31.8,31.8,56.2,64.8,56.2c33,0,60.3-24.4,64.8-56.2c-21.4,0.6-43.3,0.9-64.8,1
		C228.4,437,206.5,436.6,185.1,436z"/>
	<path d="M400.9,25.2l-46.1,48.4c-26.2-21.5-58.3-41.3-84.5-49c0.2-1.1,0.3-2.2,0.3-3.3c0-10.8-9.2-19.5-20.7-19.5
		c-11.4,0-20.7,8.7-20.7,19.5c0,1.1,0.1,2.2,0.3,3.3C181.2,38.7,112.7,94.6,98,125.1c-38.6,80.4,2.7,173.6-65,235.5
		c-18.3,16.8-34.5,22-33.1,31.9c1.1,8,13.3,14.3,32.8,19.1L6.4,439.2l29,27.6l394.5-414L400.9,25.2z"/>
	<path d="M466.8,360.6c-65-59.5-29.5-147.7-60.7-225.7l-275,288.6c37.3,2.2,78.7,3.1,118.8,3.3c117.7-0.7,246.1-7.1,249.9-34.2
		C501.3,382.6,485.1,377.4,466.8,360.6z"/>
</g>
</svg>
