<?xml version="1.0" encoding="utf-8"?>
<!-- Generator: Adobe Illustrator 19.2.1, SVG Export Plug-In . SVG Version: 6.00 Build 0)  -->
<svg version="1.1" id="Layer_1" xmlns="http://www.w3.org/2000/svg" xmlns:xlink="http://www.w3.org/1999/xlink" x="0px" y="0px"
	 width="500px" height="500px" viewBox="0 0 500 500" enable-background="new 0 0 500 500" xml:space="preserve">
<g>
	<path d="M185.1,436c4.5,31.8,31.8,56.2,64.8,56.2s60.3-24.4,64.8-56.2c-21.4,0.6-43.3,0.9-64.8,1C228.4,437,206.5,436.6,185.1,436z
		"/>
	<path d="M400.9,25.2l-46.1,48.4c-26.3-21.5-58.4-41.4-84.6-49.1c0.2-1.1,0.3-2.2,0.3-3.3c0.1-10.7-9.1-19.5-20.5-19.5
		c-11.4,0-20.7,8.7-20.7,19.5c0,1.1,0.1,2.2,0.3,3.3C181.2,38.7,112.7,94.6,98,125.1c-38.6,80.4,2.7,173.6-65,235.5
		c-18.3,16.8-34.5,22-33.1,31.9c1.1,8,13.3,14.2,32.9,19L6.4,439.2l29,27.6l394.5-414L400.9,25.2z M93.7,346.8
		c19.5-37.1,21.8-77.4,23.9-114.3c1.9-32.6,3.6-63.4,16.5-90.1c2.9-5.9,16.7-22.7,41.7-42.2c23.3-18.2,47.6-32.1,65-37.2l9.2-2.7
		l9.1,2.7c18.6,5.4,44.8,21,67.6,39.2L93.7,346.8z"/>
	<path d="M466.7,360.7c-64.9-59.6-29.4-147.8-60.6-225.8l-275,288.6c37.3,2.2,78.7,3.1,118.8,3.3c117.7-0.7,246.1-7.1,249.9-34.2
		C501.2,382.7,485,377.5,466.7,360.7z M393,381.5c-37,3-85.1,4.7-143.1,5.1c-9.7-0.1-19.1-0.2-28.3-0.3l159.8-167.6
		c0.3,4.5,0.6,9.1,0.8,13.7c2.7,47.5,5.8,100.9,45.6,145.5C418.3,379.2,406.8,380.4,393,381.5z"/>
</g>
</svg>
