<?xml version="1.0" encoding="utf-8"?>
<!-- Generator: Adobe Illustrator 19.2.1, SVG Export Plug-In . SVG Version: 6.00 Build 0)  -->
<svg version="1.1" id="Layer_1" xmlns="http://www.w3.org/2000/svg" xmlns:xlink="http://www.w3.org/1999/xlink" x="0px" y="0px"
	 width="500px" height="500px" viewBox="0 0 500 500" enable-background="new 0 0 500 500" xml:space="preserve">
<g>
	<path d="M466.7,360.6c-67.7-62-26.3-155.2-65-235.5C387,94.6,318.6,38.8,270.2,24.6c0.2-1.1,0.3-2.2,0.3-3.3
		c0.1-10.8-9.1-19.6-20.5-19.6c-11.4,0-20.7,8.7-20.7,19.5c0,1.1,0.1,2.2,0.3,3.3C181.2,38.7,112.7,94.6,98,125.1
		c-38.6,80.4,2.7,173.6-65,235.5c-18.3,16.8-34.5,22-33.1,31.9c3.9,27.1,132.3,33.5,250,34.2c117.7-0.7,246.1-7.1,249.9-34.2
		C501.2,382.6,485,377.4,466.7,360.6z M393.1,381.6c-37,3-85.1,4.7-143.1,5.1c-57.9-0.3-106.1-2.1-143.1-5.1
		C93,380.5,81.5,379.3,72,378c39.8-44.6,42.9-98,45.6-145.5c1.9-32.6,3.6-63.4,16.5-90.1c2.9-5.9,16.7-22.7,41.7-42.2
		c23.3-18.2,47.6-32.1,65-37.2l9.2-2.7l9.1,2.7c17.4,5.1,41.7,19,65,37.2c25,19.5,38.8,36.2,41.7,42.2
		c12.9,26.7,14.6,57.5,16.5,90.1c2.7,47.5,5.8,100.9,45.6,145.5C418.4,379.3,406.9,380.5,393.1,381.6z"/>
	<path d="M185.1,436c4.5,31.8,31.8,56.2,64.8,56.2s60.3-24.4,64.8-56.2c-21.4,0.6-43.3,0.9-64.8,1C228.4,437,206.5,436.6,185.1,436z
		"/>
</g>
</svg>
