<?xml version="1.0" encoding="utf-8"?>
<!-- Generator: Adobe Illustrator 19.2.1, SVG Export Plug-In . SVG Version: 6.00 Build 0)  -->
<svg version="1.1" id="Layer_1" xmlns="http://www.w3.org/2000/svg" xmlns:xlink="http://www.w3.org/1999/xlink" x="0px" y="0px"
	 width="500px" height="500px" viewBox="0 0 500 500" enable-background="new 0 0 500 500" xml:space="preserve">
<g>
	<path d="M473.4,321.4c6.2,2.7,9.1,7.9,8.7,15.7c-0.4,7.8-5.8,20.4-16,37.7c-10.2,17.8-18.6,28.7-25,32.7c-6.5,4-12.3,4-17.7,0
		L281.2,304.1L299.9,479c1.3,6.7-1.6,11.8-8.7,15.4c-7.1,3.6-20.9,5.3-41.4,5.3c-20.5,0-34.3-1.8-41.4-5.3c-7.1-3.6-10-8.7-8.7-15.4
		l18.7-174.9L76.9,407.5c-5.3,4-11.3,4-18,0s-15.1-14.9-25.4-32.7c-10.2-17.4-15.5-29.9-15.7-37.7c-0.2-7.8,2.8-13,9-15.7L187.7,250
		L26.9,179.2c-6.2-3.1-9.2-8.6-9-16.4c0.2-7.8,5.4-20.4,15.7-37.7c10.2-17.4,18.7-28,25.4-32s12.7-4,18,0l141.5,102.8L199.8,21.7
		c-1.3-7.1,1.6-12.5,8.7-16c7.1-3.6,20.9-5.3,41.4-5.3c20.5,0,34.3,1.8,41.4,5.3c7.1,3.6,10,8.9,8.7,16l-18.7,174.2L423.4,93.1
		c5.3-4,11.2-4,17.7,0c6.4,4,14.8,14.9,25,32.7c10.2,16.9,15.6,29.3,16,37c0.4,7.8-2.4,13.2-8.7,16.4L312.6,250L473.4,321.4z"/>
</g>
</svg>
