<?xml version="1.0" encoding="utf-8"?>
<!-- Generator: Adobe Illustrator 19.2.1, SVG Export Plug-In . SVG Version: 6.00 Build 0)  -->
<svg version="1.1" id="Layer_1" xmlns="http://www.w3.org/2000/svg" xmlns:xlink="http://www.w3.org/1999/xlink" x="0px" y="0px"
	 width="500px" height="500px" viewBox="0 0 500 500" enable-background="new 0 0 500 500" xml:space="preserve">
<g>
	<path d="M306.4,141.7l6.5-28.7h68.3l-39.3,185.6c-2.4,11.7-3.6,19.5-3.6,23.3c0,4,1,7.1,3,9.3c2,2.2,4.4,3.4,7.1,3.4
		c9.3,0,21.3-6.1,36.1-18.2c14.8-12.2,27.6-28.7,38.6-49.7c11-21,16.4-43.9,16.4-68.7c0-20.7-3.9-40.2-11.8-58.5
		c-7.9-18.3-19.2-34.2-34-47.6c-14.8-13.5-33.2-24-55-31.6c-21.8-7.6-46.5-11.4-74.1-11.4c-28.1,0-53.9,3.7-77.4,11
		c-23.5,7.3-44.1,17.9-61.9,31.6c-17.8,13.7-32.6,30.7-44.5,50.9c-10.5,17.6-18.6,37.1-24.1,58.5c-5.5,21.4-8.3,43.2-8.3,65.5
		c0,29.7,5.9,56.8,17.7,81.4c11.8,24.6,29,45.2,51.5,61.9c22.5,16.6,49.7,28.5,81.7,35.5c31.9,7,68,8.4,108.2,4.3
		c31.9-3.8,59-11,81.1-21.7c22.2-10.7,40.9-25.7,56.3-45H500c-9,18.5-20.7,34.9-35.1,49.4c-14.4,14.5-31.3,26.7-50.6,36.6
		c-19.3,9.9-41,17.5-65,22.6c-24,5.2-50.1,7.8-78.4,7.8c-42.4,0-80.7-5.6-114.6-16.7C122.3,471,93.7,455,70.5,434
		c-23.2-21-40.8-46-52.7-75.1C6,329.9,0,297.7,0,262.6c0-36.8,6.1-71.1,18.4-103c12.2-31.9,29.9-59.7,52.9-83.2s51.2-42,84.4-55.3
		C188.9,7.8,225.5,1.2,265.5,1.2c32.8,0,62.8,4.8,90.2,14.4c27.3,9.6,50.8,23.3,70.3,41.3c19.5,17.9,34.4,39.2,44.6,63.8
		c10.3,24.6,15.4,51.7,15.4,81.4c0,23.1-4.1,45.8-12.4,67.9c-8.3,22.2-20.1,42.1-35.6,59.8c-15.4,17.7-33.6,31.7-54.5,41.9
		C362.7,381.9,340.1,387,316,387c-14,0-24.8-2.4-32.6-7.1c-7.8-4.7-12.9-12.3-15.5-22.6c-15,14.8-32.3,24.2-51.8,28.1
		c-19.5,3.9-38.4,2.1-56.7-5.4c-18.3-7.5-33.1-20.1-44.4-37.9c-11.3-17.8-16.9-39.7-16.9-65.7c0-27.1,5.8-53.7,17.5-80
		c11.6-26.2,28.2-47.7,49.7-64.4c21.5-16.7,45.8-25.1,72.9-25.1C269.2,106.8,291.9,118.4,306.4,141.7z M164.9,275.8
		c0,20.7,4.3,36.6,12.9,47.6c8.6,11,19.9,16.6,33.9,16.6c16.2,0,30.5-6.5,42.8-19.4c12.3-12.9,21.7-29.3,28.1-49
		c6.4-19.8,9.6-38.9,9.6-57.3c0-9.1-1.1-17.4-3.2-24.7c-2.2-7.3-5.3-13.8-9.6-19.3c-4.2-5.5-9.3-9.7-15.3-12.6s-12.7-4.3-20.3-4.3
		c-15.2,0-28.9,5.9-41,17.7c-12.2,11.8-21.5,27.2-28.1,46.1C168.1,236,164.9,255.6,164.9,275.8z"/>
</g>
</svg>
