<?xml version="1.0" encoding="utf-8"?>
<!-- Generator: Adobe Illustrator 19.2.1, SVG Export Plug-In . SVG Version: 6.00 Build 0)  -->
<svg version="1.1" id="Layer_1" xmlns="http://www.w3.org/2000/svg" xmlns:xlink="http://www.w3.org/1999/xlink" x="0px" y="0px"
	 width="500px" height="500px" viewBox="0 0 500 500" enable-background="new 0 0 500 500" xml:space="preserve">
<g>
	<path d="M250,60c50.8,0,98.5,19.8,134.4,55.6C420.2,151.5,440,199.2,440,250s-19.8,98.5-55.6,134.4C348.5,420.2,300.8,440,250,440
		s-98.5-19.8-134.4-55.6C79.8,348.5,60,300.8,60,250s19.8-98.5,55.6-134.4C151.5,79.8,199.2,60,250,60 M250,0C111.9,0,0,111.9,0,250
		s111.9,250,250,250s250-111.9,250-250S388.1,0,250,0L250,0z"/>
</g>
</svg>
