<?xml version="1.0" encoding="utf-8"?>
<!-- Generator: Adobe Illustrator 19.2.1, SVG Export Plug-In . SVG Version: 6.00 Build 0)  -->
<svg version="1.1" id="Layer_1" xmlns="http://www.w3.org/2000/svg" xmlns:xlink="http://www.w3.org/1999/xlink" x="0px" y="0px"
	 width="500px" height="500px" viewBox="0 0 500 500" enable-background="new 0 0 500 500" xml:space="preserve">
<path d="M250,40c56.1,0,108.8,21.8,148.5,61.5C438.2,141.2,460,193.9,460,250s-21.8,108.8-61.5,148.5C358.8,438.2,306.1,460,250,460
	s-108.8-21.8-148.5-61.5C61.8,358.8,40,306.1,40,250s21.8-108.8,61.5-148.5C141.2,61.8,193.9,40,250,40 M250,0
	C111.9,0,0,111.9,0,250s111.9,250,250,250s250-111.9,250-250S388.1,0,250,0L250,0z"/>
</svg>
