<?xml version="1.0" encoding="utf-8"?>
<!-- Generator: Adobe Illustrator 19.2.1, SVG Export Plug-In . SVG Version: 6.00 Build 0)  -->
<svg version="1.1" id="Layer_1" xmlns="http://www.w3.org/2000/svg" xmlns:xlink="http://www.w3.org/1999/xlink" x="0px" y="0px"
	 width="500px" height="500px" viewBox="0 0 500 500" enable-background="new 0 0 500 500" xml:space="preserve">
<path d="M280,38.3L280,38.3c0,13.5,9,25.2,21.9,28.9c30.9,8.7,59.1,25.2,82.4,48.5c35.9,35.9,55.9,84.7,55.6,135.4
	c-0.3,50.3-20,97.6-55.6,133.3C348.5,420.2,300.8,440,250,440s-98.5-19.8-134.4-55.6C80,348.7,60.3,301.4,60,251.1
	c-0.3-50.7,19.8-99.6,55.6-135.4c23.3-23.3,51.6-39.8,82.4-48.5C211,63.5,220,51.7,220,38.3v0c0-19.9-19.1-34.3-38.3-28.8
	C76.7,39.2-0.3,135.9,0,250.6C0.3,389.1,112,500.3,250.5,500C388.4,499.7,500,387.9,500,250c0-114.4-76.8-210.8-181.7-240.5
	C299.1,4,280,18.3,280,38.3z"/>
</svg>
