<?xml version="1.0" encoding="utf-8"?>
<!-- Generator: Adobe Illustrator 19.2.1, SVG Export Plug-In . SVG Version: 6.00 Build 0)  -->
<svg version="1.1" id="Layer_1" xmlns="http://www.w3.org/2000/svg" xmlns:xlink="http://www.w3.org/1999/xlink" x="0px" y="0px"
	 width="500px" height="500px" viewBox="0 0 500 500" enable-background="new 0 0 500 500" xml:space="preserve">
<g>
	<path d="M0,207.5c0,40.9,22.3,78,58.9,105.9c2,1.5,6.2,4.5,6.2,4.5l-28.4,108l98.5-74.6c0,0,56.7,12.6,87.9,12.6
		c123.2,0,223-70,223-156.5S346.1,51,223,51S0,121,0,207.5z"/>
</g>
<g>
	<g>
		<path d="M438.2,330.3C476.6,301.1,500,262,500,219.1c0-77.4-76.2-142.2-178.9-159.7c82.6,25.4,140.3,83.2,140.3,150.5
			c0,90.7-104.8,164.3-234.1,164.3c-18.3,0-45.1-4.2-65-7.8c31.2,10.8,66.4,16.9,103.6,16.9c32.8,0,106.7-17.3,106.7-17.3l66.3,50
			l-15.1-74.7C423.8,341.4,436.1,331.9,438.2,330.3z"/>
	</g>
</g>
</svg>
