<?xml version="1.0" encoding="utf-8"?>
<!-- Generator: Adobe Illustrator 19.2.1, SVG Export Plug-In . SVG Version: 6.00 Build 0)  -->
<svg version="1.1" id="Layer_1" xmlns="http://www.w3.org/2000/svg" xmlns:xlink="http://www.w3.org/1999/xlink" x="0px" y="0px"
	 width="500px" height="500px" viewBox="0 0 500 500" enable-background="new 0 0 500 500" xml:space="preserve">
<g>
	<path d="M250,87.7c29.9,0,58.8,4.1,85.9,12.1c25.6,7.6,48.5,18.4,67.9,32c36.2,25.4,56.2,57.8,56.2,91.3s-20,65.9-56.2,91.3
		c-19.4,13.6-42.3,24.4-67.9,32c-27.1,8-56,12.1-85.9,12.1c-25,0-73.3-9.5-89.8-13.2l-18.1-4l-14.8,11.2l-18.2,13.7l2.4-9.1l7-26.6
		l-22.3-16c-1.7-1.3-4.8-3.4-6-4.4c-16.5-12.6-29.2-26.6-37.8-41.8C44.2,253.6,40,238.5,40,223.1c0-33.4,20-65.9,56.2-91.3
		c19.4-13.6,42.3-24.4,67.9-32C191.2,91.7,220.1,87.7,250,87.7 M250,47.7C111.9,47.7,0,126.2,0,223.1c0,45.8,25,87.5,66,118.7
		c2.3,1.7,6.9,5.1,6.9,5.1l-31.8,121l110.4-83.6c0,0,63.5,14.1,98.5,14.1c138.1,0,250-78.5,250-175.4S388.1,47.7,250,47.7L250,47.7z
		"/>
</g>
</svg>
