<?xml version="1.0" encoding="utf-8"?>
<!-- Generator: Adobe Illustrator 19.2.1, SVG Export Plug-In . SVG Version: 6.00 Build 0)  -->
<svg version="1.1" id="Layer_1" xmlns="http://www.w3.org/2000/svg" xmlns:xlink="http://www.w3.org/1999/xlink" x="0px" y="0px"
	 width="500px" height="500px" viewBox="0 0 500 500" enable-background="new 0 0 500 500" xml:space="preserve">
<g>
	<path d="M223,91c26.2,0,51.6,3.6,75.4,10.6c22.4,6.6,42.4,16,59.3,27.9c31.1,21.8,48.3,49.5,48.3,77.9s-17.1,56-48.3,77.9
		c-16.9,11.9-36.9,21.3-59.3,27.9c-23.8,7.1-49.2,10.6-75.4,10.6c-21.9,0-64.6-8.4-79.2-11.7l-18.1-4L111,319.4l-6.2,4.7l6-22.7
		l-22.3-16c-1.5-1.1-4.2-3-5.3-3.8c-14.2-10.8-25.2-23-32.6-36c-7-12.3-10.5-25.1-10.5-38.1c0-28.4,17.1-56,48.3-77.9
		c16.9-11.9,36.9-21.3,59.3-27.9C171.4,94.6,196.7,91,223,91 M223,51C99.8,51,0,121,0,207.5c0,40.9,22.3,78,58.9,105.9
		c2,1.5,6.2,4.5,6.2,4.5l-28.4,108l98.5-74.6c0,0,56.7,12.6,87.9,12.6c123.2,0,223-70,223-156.5C446,121,346.1,51,223,51L223,51z"/>
</g>
<g>
	<g>
		<path d="M438.2,330.3C476.6,301.1,500,262,500,219.1c0-77.4-76.2-142.2-178.9-159.7c82.6,25.4,140.3,83.2,140.3,150.5
			c0,90.7-104.8,164.3-234.1,164.3c-18.3,0-45.1-4.2-65-7.8c31.2,10.8,66.4,16.9,103.6,16.9c32.8,0,106.7-17.3,106.7-17.3l66.3,50
			l-15.1-74.7C423.8,341.4,436.1,331.9,438.2,330.3z"/>
	</g>
</g>
</svg>
